<svg xmlns="http://www.w3.org/2000/svg" xmlns:xlink="http://www.w3.org/1999/xlink" width="100" zoomAndPan="magnify" viewBox="0 0 75 30.000001" height="40" preserveAspectRatio="xMidYMid meet" version="1.0"><defs><g/><clipPath id="12b01751d0"><path d="M 1.210938 7 L 14 7 L 14 19 L 1.210938 19 Z M 1.210938 7 " clip-rule="nonzero"/></clipPath><clipPath id="7c4762d2f8"><path d="M 65 10 L 73.789062 10 L 73.789062 19 L 65 19 Z M 65 10 " clip-rule="nonzero"/></clipPath></defs><g clip-path="url(#12b01751d0)"><g fill="#800ff0" fill-opacity="1"><g transform="translate(1.22692, 18.930634)"><g><path d="M 6.183594 -11.21875 C 7.828125 -11.21875 9.203125 -10.617188 10.316406 -9.410156 C 10.472656 -9.238281 10.550781 -9.042969 10.550781 -8.820312 C 10.550781 -8.789062 10.550781 -8.757812 10.546875 -8.726562 C 10.511719 -8.464844 10.394531 -8.261719 10.191406 -8.125 L 10.179688 -8.109375 C 10.019531 -7.996094 9.851562 -7.9375 9.675781 -7.9375 C 9.640625 -7.9375 9.609375 -7.941406 9.574219 -7.945312 C 9.359375 -7.964844 9.175781 -8.058594 9.023438 -8.226562 C 8.261719 -9.054688 7.316406 -9.46875 6.183594 -9.46875 C 5.121094 -9.46875 4.214844 -9.089844 3.460938 -8.339844 C 2.710938 -7.589844 2.335938 -6.679688 2.335938 -5.609375 C 2.335938 -4.542969 2.710938 -3.632812 3.460938 -2.878906 C 4.214844 -2.132812 5.121094 -1.761719 6.183594 -1.761719 C 7.136719 -1.761719 7.972656 -2.070312 8.691406 -2.6875 C 9.40625 -3.300781 9.824219 -3.980469 9.949219 -4.734375 L 6.363281 -4.734375 C 6.125 -4.734375 5.917969 -4.820312 5.746094 -4.992188 C 5.578125 -5.160156 5.496094 -5.363281 5.496094 -5.601562 L 5.496094 -5.617188 C 5.496094 -5.855469 5.578125 -6.0625 5.746094 -6.234375 C 5.917969 -6.402344 6.125 -6.488281 6.363281 -6.488281 L 10.925781 -6.488281 C 11.164062 -6.488281 11.371094 -6.402344 11.542969 -6.234375 C 11.710938 -6.0625 11.796875 -5.855469 11.800781 -5.617188 L 11.800781 -5.609375 C 11.800781 -4.0625 11.253906 -2.742188 10.15625 -1.644531 C 9.054688 -0.546875 7.730469 0 6.183594 0 C 4.636719 0 3.316406 -0.546875 2.21875 -1.644531 C 1.121094 -2.742188 0.574219 -4.0625 0.574219 -5.609375 C 0.574219 -7.15625 1.121094 -8.480469 2.21875 -9.574219 C 3.316406 -10.671875 4.636719 -11.21875 6.183594 -11.21875 Z M 6.183594 -11.21875 "/></g></g></g></g><g fill="#800ff0" fill-opacity="1"><g transform="translate(13.601958, 18.930634)"><g><path d="M 4.296875 -8.273438 C 4.535156 -8.273438 4.742188 -8.1875 4.914062 -8.015625 C 5.082031 -7.84375 5.164062 -7.636719 5.164062 -7.398438 L 5.164062 -7.382812 C 5.164062 -7.144531 5.082031 -6.941406 4.914062 -6.773438 C 4.742188 -6.601562 4.535156 -6.515625 4.296875 -6.515625 L 3.886719 -6.515625 C 3.492188 -6.515625 3.160156 -6.378906 2.886719 -6.105469 C 2.621094 -5.832031 2.484375 -5.5 2.476562 -5.105469 L 2.476562 -0.871094 C 2.476562 -0.625 2.390625 -0.421875 2.21875 -0.257812 C 2.046875 -0.0859375 1.84375 0 1.609375 0 L 1.585938 0 C 1.351562 0 1.148438 -0.0859375 0.976562 -0.257812 C 0.804688 -0.421875 0.71875 -0.625 0.71875 -0.871094 L 0.71875 -5.105469 C 0.726562 -5.984375 1.035156 -6.730469 1.644531 -7.347656 C 2.261719 -7.964844 3.011719 -8.273438 3.886719 -8.273438 Z M 4.296875 -8.273438 "/></g></g></g><g fill="#800ff0" fill-opacity="1"><g transform="translate(18.837832, 18.930634)"><g><path d="M 4.855469 -8.273438 C 5.996094 -8.273438 6.96875 -7.871094 7.78125 -7.0625 C 8.589844 -6.25 8.992188 -5.277344 8.992188 -4.136719 L 8.992188 -0.871094 C 8.992188 -0.625 8.90625 -0.421875 8.734375 -0.257812 C 8.5625 -0.0859375 8.359375 0 8.125 0 L 8.101562 0 C 7.867188 0 7.664062 -0.0859375 7.492188 -0.257812 C 7.320312 -0.421875 7.234375 -0.625 7.234375 -0.871094 C 6.6875 -0.289062 5.894531 0 4.855469 0 C 3.714844 0 2.742188 -0.40625 1.933594 -1.214844 C 1.121094 -2.023438 0.71875 -2.996094 0.71875 -4.136719 C 0.71875 -5.277344 1.121094 -6.25 1.933594 -7.0625 C 2.742188 -7.871094 3.714844 -8.273438 4.855469 -8.273438 Z M 4.855469 -6.515625 C 4.195312 -6.515625 3.632812 -6.28125 3.167969 -5.820312 C 2.707031 -5.355469 2.476562 -4.792969 2.476562 -4.136719 C 2.476562 -3.476562 2.707031 -2.914062 3.167969 -2.449219 C 3.632812 -1.988281 4.195312 -1.761719 4.855469 -1.761719 C 5.515625 -1.761719 6.078125 -1.988281 6.535156 -2.449219 C 7 -2.914062 7.234375 -3.476562 7.234375 -4.136719 C 7.234375 -4.792969 7 -5.355469 6.535156 -5.820312 C 6.070312 -6.28125 5.511719 -6.515625 4.855469 -6.515625 Z M 4.855469 -6.515625 "/></g></g></g><g fill="#800ff0" fill-opacity="1"><g transform="translate(28.548244, 18.930634)"><g><path d="M 2.476562 -0.871094 C 2.476562 -0.625 2.390625 -0.421875 2.21875 -0.257812 C 2.046875 -0.0859375 1.84375 0 1.609375 0 L 1.585938 0 C 1.351562 0 1.148438 -0.0859375 0.976562 -0.257812 C 0.804688 -0.421875 0.71875 -0.625 0.71875 -0.871094 L 0.71875 -4.796875 C 0.71875 -5.757812 1.058594 -6.574219 1.738281 -7.253906 C 2.417969 -7.933594 3.238281 -8.273438 4.195312 -8.273438 C 5.148438 -8.273438 5.964844 -7.933594 6.644531 -7.253906 C 7.324219 -6.574219 7.664062 -5.757812 7.664062 -4.796875 L 7.664062 -0.871094 C 7.664062 -0.625 7.578125 -0.421875 7.40625 -0.257812 C 7.242188 -0.0859375 7.039062 0 6.796875 0 L 6.78125 0 C 6.542969 0 6.335938 -0.0859375 6.164062 -0.257812 C 5.992188 -0.421875 5.90625 -0.625 5.90625 -0.871094 L 5.90625 -4.796875 C 5.90625 -5.273438 5.738281 -5.675781 5.410156 -6.011719 C 5.074219 -6.347656 4.667969 -6.515625 4.195312 -6.515625 C 3.714844 -6.515625 3.308594 -6.347656 2.972656 -6.011719 C 2.644531 -5.675781 2.476562 -5.273438 2.476562 -4.796875 Z M 2.476562 -0.871094 "/></g></g></g><g fill="#800ff0" fill-opacity="1"><g transform="translate(36.929946, 18.930634)"><g><path d="M 1.609375 -11.21875 C 1.84375 -11.21875 2.046875 -11.136719 2.21875 -10.96875 C 2.390625 -10.796875 2.476562 -10.589844 2.476562 -10.351562 L 2.476562 -8.273438 L 3.554688 -8.273438 C 3.789062 -8.273438 3.992188 -8.1875 4.167969 -8.015625 C 4.339844 -7.84375 4.425781 -7.636719 4.425781 -7.398438 L 4.425781 -7.382812 C 4.425781 -7.140625 4.339844 -6.9375 4.167969 -6.773438 C 3.992188 -6.601562 3.789062 -6.515625 3.554688 -6.515625 L 2.476562 -6.515625 L 2.476562 -2.253906 C 2.476562 -2.117188 2.527344 -2 2.621094 -1.902344 C 2.71875 -1.808594 2.835938 -1.761719 2.980469 -1.761719 L 3.554688 -1.761719 C 3.789062 -1.761719 3.992188 -1.671875 4.167969 -1.5 C 4.339844 -1.328125 4.425781 -1.121094 4.425781 -0.882812 L 4.425781 -0.871094 C 4.425781 -0.625 4.339844 -0.421875 4.167969 -0.257812 C 3.992188 -0.0859375 3.789062 0 3.554688 0 L 2.980469 0 C 2.359375 0 1.824219 -0.21875 1.378906 -0.660156 C 0.9375 -1.105469 0.71875 -1.636719 0.71875 -2.253906 L 0.71875 -10.351562 C 0.71875 -10.589844 0.804688 -10.796875 0.976562 -10.96875 C 1.148438 -11.136719 1.351562 -11.21875 1.585938 -11.21875 Z M 1.609375 -11.21875 "/></g></g></g><g fill="#800ff0" fill-opacity="1"><g transform="translate(41.641507, 18.930634)"><g><path d="M 4.855469 -8.273438 C 5.996094 -8.273438 6.96875 -7.871094 7.78125 -7.0625 C 8.589844 -6.25 8.992188 -5.277344 8.992188 -4.136719 L 8.992188 -0.871094 C 8.992188 -0.625 8.90625 -0.421875 8.734375 -0.257812 C 8.5625 -0.0859375 8.359375 0 8.125 0 L 8.101562 0 C 7.867188 0 7.664062 -0.0859375 7.492188 -0.257812 C 7.320312 -0.421875 7.234375 -0.625 7.234375 -0.871094 C 6.6875 -0.289062 5.894531 0 4.855469 0 C 3.714844 0 2.742188 -0.40625 1.933594 -1.214844 C 1.121094 -2.023438 0.71875 -2.996094 0.71875 -4.136719 C 0.71875 -5.277344 1.121094 -6.25 1.933594 -7.0625 C 2.742188 -7.871094 3.714844 -8.273438 4.855469 -8.273438 Z M 4.855469 -6.515625 C 4.195312 -6.515625 3.632812 -6.28125 3.167969 -5.820312 C 2.707031 -5.355469 2.476562 -4.792969 2.476562 -4.136719 C 2.476562 -3.476562 2.707031 -2.914062 3.167969 -2.449219 C 3.632812 -1.988281 4.195312 -1.761719 4.855469 -1.761719 C 5.515625 -1.761719 6.078125 -1.988281 6.535156 -2.449219 C 7 -2.914062 7.234375 -3.476562 7.234375 -4.136719 C 7.234375 -4.792969 7 -5.355469 6.535156 -5.820312 C 6.070312 -6.28125 5.511719 -6.515625 4.855469 -6.515625 Z M 4.855469 -6.515625 "/></g></g></g><g fill="#800ff0" fill-opacity="1"><g transform="translate(51.351919, 18.930634)"><g><path d="M 4.855469 -6.5 C 4.195312 -6.5 3.632812 -6.269531 3.167969 -5.804688 C 2.707031 -5.339844 2.476562 -4.777344 2.476562 -4.117188 C 2.476562 -3.460938 2.707031 -2.898438 3.167969 -2.433594 C 3.632812 -1.96875 4.195312 -1.738281 4.855469 -1.738281 C 5.511719 -1.738281 6.070312 -1.96875 6.535156 -2.433594 C 7 -2.898438 7.234375 -3.460938 7.234375 -4.117188 C 7.234375 -4.777344 7 -5.339844 6.535156 -5.804688 C 6.070312 -6.269531 5.511719 -6.5 4.855469 -6.5 Z M 1.609375 -11.21875 C 1.84375 -11.21875 2.046875 -11.136719 2.21875 -10.96875 C 2.390625 -10.796875 2.476562 -10.589844 2.476562 -10.351562 L 2.476562 -7.558594 C 3.019531 -8.035156 3.8125 -8.273438 4.855469 -8.273438 C 5.996094 -8.273438 6.96875 -7.871094 7.78125 -7.0625 C 8.589844 -6.25 8.992188 -5.277344 8.992188 -4.136719 C 8.992188 -2.996094 8.589844 -2.023438 7.78125 -1.214844 C 6.96875 -0.40625 5.996094 0 4.855469 0 C 3.714844 0 2.742188 -0.402344 1.941406 -1.207031 C 1.128906 -2.007812 0.722656 -2.976562 0.71875 -4.117188 L 0.71875 -10.351562 C 0.71875 -10.589844 0.804688 -10.796875 0.976562 -10.96875 C 1.148438 -11.136719 1.351562 -11.21875 1.585938 -11.21875 Z M 1.609375 -11.21875 "/></g></g></g><g fill="#800ff0" fill-opacity="1"><g transform="translate(60.846863, 18.930634)"><g><path d="M 1.894531 -11.21875 C 2.132812 -11.21875 2.335938 -11.136719 2.507812 -10.96875 C 2.679688 -10.796875 2.765625 -10.589844 2.765625 -10.351562 L 2.765625 -0.871094 C 2.765625 -0.625 2.679688 -0.421875 2.507812 -0.257812 C 2.335938 -0.0859375 2.132812 0 1.894531 0 L 1.875 0 C 1.640625 0 1.4375 -0.0859375 1.265625 -0.257812 C 1.09375 -0.421875 1.003906 -0.625 1.003906 -0.871094 L 1.003906 -10.351562 C 1.003906 -10.589844 1.09375 -10.796875 1.265625 -10.96875 C 1.4375 -11.136719 1.640625 -11.21875 1.875 -11.21875 Z M 1.894531 -11.21875 "/></g></g></g><g clip-path="url(#7c4762d2f8)"><g fill="#800ff0" fill-opacity="1"><g transform="translate(64.617556, 18.930634)"><g><path d="M 4.640625 -6.5 C 3.980469 -6.5 3.417969 -6.269531 2.953125 -5.804688 C 2.492188 -5.339844 2.261719 -4.777344 2.261719 -4.117188 L 2.261719 -4.066406 L 6.277344 -5.867188 C 5.921875 -6.289062 5.378906 -6.5 4.640625 -6.5 Z M 8.398438 -5.863281 C 8.453125 -5.742188 8.484375 -5.621094 8.484375 -5.496094 C 8.484375 -5.394531 8.464844 -5.292969 8.425781 -5.195312 C 8.34375 -4.96875 8.191406 -4.804688 7.964844 -4.703125 C 7.296875 -4.402344 6.414062 -4.007812 5.324219 -3.511719 C 3.96875 -2.898438 3.171875 -2.539062 2.9375 -2.429688 C 3.300781 -1.96875 3.871094 -1.738281 4.640625 -1.738281 C 5.152344 -1.738281 5.617188 -1.890625 6.035156 -2.191406 C 6.441406 -2.488281 6.726562 -2.871094 6.890625 -3.339844 C 7.027344 -3.734375 7.304688 -3.929688 7.722656 -3.929688 C 8.019531 -3.929688 8.257812 -3.804688 8.433594 -3.554688 C 8.542969 -3.402344 8.597656 -3.242188 8.597656 -3.074219 C 8.597656 -2.972656 8.578125 -2.871094 8.539062 -2.765625 C 8.257812 -1.945312 7.761719 -1.285156 7.054688 -0.78125 C 6.335938 -0.261719 5.53125 0 4.640625 0 C 3.5 0 2.527344 -0.40625 1.71875 -1.214844 C 0.90625 -2.023438 0.503906 -2.996094 0.503906 -4.136719 C 0.503906 -5.277344 0.90625 -6.25 1.71875 -7.0625 C 2.527344 -7.871094 3.5 -8.273438 4.640625 -8.273438 C 5.464844 -8.273438 6.214844 -8.050781 6.894531 -7.601562 C 7.570312 -7.160156 8.070312 -6.578125 8.398438 -5.863281 Z M 8.398438 -5.863281 "/></g></g></g></g></svg>